<?xml version="1.0" encoding="utf-8"?>
<!-- Generator: Adobe Illustrator 26.0.1, SVG Export Plug-In . SVG Version: 6.00 Build 0)  -->
<svg version="1.1" id="Layer_1" xmlns="http://www.w3.org/2000/svg" xmlns:xlink="http://www.w3.org/1999/xlink" x="0px" y="0px"
	 viewBox="0 0 800 800" style="enable-background:new 0 0 800 800;" xml:space="preserve">
<style type="text/css">
	.st0{fill:#FFFFFF;}
	.st1{display:none;enable-background:new    ;}
	.st2{font-family:'Urban-Storm';}
	.st3{font-size:227.6289px;}
</style>
<g>
	<g>
		<path class="st0" d="M179.7,691.4c2.3,4.1,5,8.3,7.4,12.3c-1.6-0.6-3.1-3.7-4.2-5.3c-14.1-21-28.4-41.7-43.2-62.2
			c-1.3-1.7-3-3.9-5-6.2c0.7,3.5,2.8,6.1,4.4,8.2c16,22.8,32,45.6,48,68.4c1.1,1.6,2.1,3.1,3.1,4.6c-1,1.6-3.4-0.7-6.7-4.8
			c-2.7-3.5-5.4-6.8-8.2-10.8c-21.5-28.9-43.5-57.3-66-85.4c-3.8-4.7-7.2-8.9-11.2-12.2c1.4,3.6,2.2,6.5,3.4,9.1
			c7.7,16.3,16.5,32.2,26.1,47.7c2.3,3.7,4.7,7.2,7.3,10.6c3.3,4.4,5.7,8.2,6.9,10.6c0.1,0.5,0.2,1.1,0,1.2
			c-0.4,0.4-1.8-0.5-1.6,0.6c0,0.5,1.7,2.8,2.9,4.5c-1.6-1.4-6.6-7-5.7-5.4c0.3,0.4-1.8-1.8-2.9-3c-2.9-3.2-5.4-6-8.3-9.2
			c-2.5-2.8-5-5.6-9.4-10.8c1.9,2.7,2.8,4,4,5.5c-0.5-0.5-1-1-1.7-1.8c-8-9.2-15.9-18.9-23.1-28.8c-5.1-7.1-9.9-14.3-14.6-21.6
			c-1.8-2.8-4.1-5.7-6.1-8.7c-0.4,0-0.7-0.4-0.7-0.2c0,0-0.2,0.1,0,0.4c10,15.7,20.5,31,32.1,45.2c3.2,4,6.7,7.9,9.8,11.4
			c-5.7-6.1-10.8-11.9-15.4-17.5c-6.5-8-13.4-16.9-19.1-25.4C58.9,578,40.3,540.9,29.4,502c-6.8-24.1-10.8-50.1-11.9-75
			c-0.2-4,0.1-8.1,1.9-14c0.5,19.6,1.7,39.2,5.1,58c3.3,18.1,8.3,36.6,14.9,54c6.6,17.6,14.4,34.6,24,51.1c-1.1-2.3-1.9-4.1-3-6.4
			c-4-8.2-8.3-16.7-11.5-25.1c-13.7-35.2-22.3-71.3-26.1-108.9c-0.6-6-0.5-12,0.9-20.3c0.7,4.3,1.3,6.2,1.4,7.8
			c3,23.7,4.8,48.3,10.3,70.6c1.1,4.6,2.5,9.4,3.9,14.4c2.4,1.3,2-0.5,1.5-2.3c-1-5.3-2.1-10.7-3.2-15.7c-5-23.4-8.1-47.3-9.3-71.3
			c-0.1-1.5-0.1-2.7,0.1-4.6c1.5-0.7,3-1,5-1.7c0.6,3.1,1.2,6.3,1.8,9.4c4.2-1.8,3.3-7.7,4.5-11.6c1.1,2.4,1.6,4,2.7,7.2
			c1.2-3.5,1.9-6.3,2.7-9.8c3.3,3.7,6.6,3.4,10.4,2.8c15.8-3,27.1-3.5,43.1-1.3c1.8,0.5,3.8,0.1,5.9,0.1c6.7-1.6,13.6,0.9,19.7,4.4
			c7.5,4.2,12.2,14.4,16.9,25c1,2.2,1.5,4.9,1.7,7.1c2.2,19.9,4.9,39.6,8,59.4c0.3,1.3,0.2,2.1,0.4,2.6c4.6,6.7,3.1,13.9,3.3,20.5
			c0.1,5.4-0.2,10.4-0.3,15.3c-0.9,14.6-2.8,27.3-10.4,40c-2.6,4.2-6.6,4.6-10.9,3.1c-6.2-2.2-10.7,0.2-16.4,0.4
			c12,16.6,24.9,32.5,36.9,49.1c12.5,17.2,24.6,34.5,36.1,52.4c-2.4-1-4.6-6.1-6.5-6.7c1.4,5.3,5.5,8.9,8,14.8
			c-0.3,0.4-1.3,0.5-2,1.5c-0.3-0.4-1.8-2.2-3.5-3.9c-4.2-6.7-8.5-12.9-13.8-19c1.2,3.4,1.8,4.7,2.5,6.7
			C176.4,685.5,178,688.4,179.7,691.4z M104.9,639.1c0.9,1.7,2,3.3,4.8,6C107.1,641.5,107.1,641.5,104.9,639.1z M99.5,623.9
			c0.2-0.7-2.8-4.4-3.8-6.3c-0.2-0.1-0.5-0.3-0.7-0.4c1.5,2.5,2.6,4.3,3.9,6.5C99.2,624,99.5,624,99.5,623.9z M46.1,465.9
			c-1.1,4.4-0.9,8.4,1.2,12.8C48.2,475.1,48.8,471.4,46.1,465.9z M58.2,484c0.7,10.1,2,19.7,5.4,29.6
			C63.2,504.3,61.3,494.5,58.2,484z M102.3,613.4c2.6,6.5,5.6,11.9,10,18.5C107.9,622.3,107.7,621.5,102.3,613.4z M63.1,459.1
			c-5.6,9.3,1.5,39.1,6.8,57.2c1,0.6,2.5,1.3,3.6,1.5c3.2,0.5,6.6,0,9.2-0.2c6.8-0.6,15.5-0.9,22.9-1.7c4.6-0.5,9.3-1.6,9.5-12
			c0-0.4,0.6-1.1,0.8-1.1c2.4,0.3,2.3-3.1,1.8-5.5c-0.7-2.9-1.8-6.3-2.9-7.7c-3.1-2.8-5.5-7.9-8-11.9c-5.5-8.3-11.2-13.7-17.6-14.4
			c-4.4-0.5-8.8-1-13.3-1.5c3.5-1.2,7.6,1,12.5-2.2C78.2,455.5,65,456,63.1,459.1z M95.1,535c1.1,0.3,1.8-0.7,3.5-1
			c-4.7-5.8-7.7-5.9-10-5.1c-4.2,1.3-11.2-2.1-13.9,5.1C83,537.7,88.7,535.4,95.1,535z M61.3,437.3c5.7,4.1,8.2,0.4,11.1-1.4
			C69.1,433.6,66.2,436.6,61.3,437.3z M66.5,416.7c-2,0.3-4.6,0.5-5.3,4.5c0.5,0.8,1,2.1,1.5,2.1c9.6,0.7,19.6,1.3,29,1.5
			c1,0,1.5-0.8,3-2C85.3,415.4,75.9,414.9,66.5,416.7z M64.5,453.5c6.8-0.4,12.4-0.9,19.7-1.8C73.7,447.7,71.2,447.9,64.5,453.5z
			 M91.5,568.9c1.1,0.1,2.4,0.5,3.6,0.5c-0.1-0.4-0.1-0.4-0.2-0.7c-1.3-0.4-2.6-0.8-3.8-1.2C91.1,567.8,91.3,568.2,91.5,568.9z
			 M108.2,552.5c-7.6-1.8-12.8-0.4-18.5-1C96.1,554.7,102.5,558,108.2,552.5z M102.5,569.1c4.3,2,9.3,6.5,12.2,3.1
			C110,568.9,106.2,568.8,102.5,569.1z M118.7,609.8c3,4.7,5.3,8,8.7,11.1C124.1,615.5,122.4,612.7,118.7,609.8z M117.2,579.5
			c-3.9-1.8-7.1-3.4-8.9-0.3C113.7,583.5,114.3,583.4,117.2,579.5z M152.8,661.5c-2.3-3-3.8-5-5.5-7.4
			C150.2,660,150.3,660,152.8,661.5z M159.7,670.9c-0.3-0.4-0.9-0.5-0.9-0.2c6.9,11.1,14.7,21.8,23.4,31.5
			C174.9,691.6,167.6,681,159.7,670.9z M185.4,695.6c0.3,0.9,0,1.3,0.4,2.8c-3.1-3.9-5.4-8.3-7.3-12.2
			C180.6,689.1,183.1,692.6,185.4,695.6z M183.2,687.3c-2.1-4.9-4-7.5-7.4-11C178.5,682.1,180.4,685,183.2,687.3z M140.2,453.2
			c-0.8-2.2-2-4-3.1-5.7c-0.3,0.4-0.5,0.9-0.7,1.3c2.6,12.9,5.5,25.7,8.4,38.5C145.5,476.2,143.6,463.6,140.2,453.2z"/>
		<path class="st0" d="M261.1,464.1c2.6,0,2.7-3.1,2.7-5.6c0.3-9.6,0.7-20.1,0.9-29.8c0.3-11.5,0.3-23.3,1.2-34.7
			c0.8-8.9,4.1-13.6,7.2-8.8c1.1,0.7,1.8,2.6,2.6,4.4c0.9,1.8,1.1,1.8,5.3,0c0.9,5.5,0.1,12.6,0.1,19.4c-0.1,7.3-0.1,14.7,0,21.4
			c0,6.8,0.4,12.9,1,19c1.2-15.2,1.5-30.1,1.4-45.3c-0.1-3.6,0-7.4,0.3-11.6c0.4-5.7,4.2-9,5-8.3c1.3,1.2,1.2,9.2,2.1,15.3
			c1.1-4,2-6.9,2.9-10.9c1.3,12-0.5,23.9,1,35.9c1.1-3.4,1.9-6.3,2-8.4c0.5-10.1,1.2-20.8,1.3-31.3c0-3.1,0.1-6.4,0.3-10.8
			c2.5,1.9,4,3.2,3.3,9.2c-0.8,7.5-1.2,15.3-1.5,22.9c-0.3,6.5-0.5,12.9,0.3,18.6c1.8,20.7,2.3,41.2,1.1,61.7
			c-0.9,16.8-0.6,34.1-0.3,51c0.3,19.9-0.6,40.1-1.2,60.2c-0.4,13.2-0.8,26.5-1.4,39.5c-0.6,12.9-1.4,26.3-3.4,39.2
			c-1.7,11.3-2.8,22.9-3.9,34.2c-0.8,8.5-2,15.9-4.2,22c-1.9,11.2-15.7,16.3-24.7,11.1c-2.8-1.6-7-3.2-10.3-4.2
			c-5.6-1.9-12.2-5.5-18.7-10.8c-3.8-3.1-8.1-8.1-12.1-14.1c-8.4-12.1-15.5-25.2-21.4-38.8c2.5,3.9,3.8,5.7,5.4,8.2
			c-2.5-10-5.2-17.7-9.6-23.4c-4.3-5.5-6.3-11.7-8.2-18.8c1.2,1.8,1.7,2.3,2.7,4c0-1.4,0.7-2,0.5-2.8c-1.8-7.4-4.5-15.2-8.1-22.4
			c-0.7-1.3-1.8-3.4-1.8-4.6c-1.4-11.3-5.4-22.7-9.2-33.4c-1.1-3.8-1.9-8.1-2.8-12.1c-1.4-5.8-3.3-12.7-4.5-19.4
			c-1.1-6.2-1.5-12.6-2.2-19.5c3.5-4.8,3.2-12.2,2.5-20.4c-1.3-15-1.9-30.3-2.2-45.5c-0.1-3.1-0.3-5.4-1.8-8.5
			c-0.2,4.9-0.4,9.8-0.5,14.3c-0.6-15.8,0.2-29.5,2.4-45.1c2.1-1.9,3.9-3.5,5.7-4.5c0.7,0.9,1.2,1.3,1.2,2.2
			c0.4,10.1,0.5,20.6,1.2,30.5c1.3-13.4,2.5-26.2,5.2-39.4c0.7,0.4,1.5,1.2,2.4,2.1c3-4.5,2.5-13.7,6.8-18.1c1.2,0.8,2.4,2,3.6,3.3
			c1.7-3.5,3.2-6.6,5.5-11.7c0.8,3.1,1.3,5.9,1.9,8.6c1.4-3.1,2.9-6.7,4.4-10.3c2.4,1,4.3,2,6.3,3.9c0.3,12.2-0.5,24.5-1.4,36.6
			c-1.8,24.8-2.8,50-3.3,74.6c-0.3,11,0.3,23.8,3.5,34.6c0.9,2.7,0.9,6.3,1.2,9.9c1.5,19,3.5,37.6,7.1,56.3c0.6,2.6,0.5,5.6,0.7,8.1
			c1.2,14.7,5.4,29.3,13.3,41.8c2.2,3.2,3.8,6.7,5.6,9.8c7.2,11.7,13.9,13.9,18.3,5.8c3.5-6.5,6.1-15.4,6.6-27.3
			c0.3-6.6,1.2-13.4,1.3-20.6c0-4.5,3.7-2.7,2.3-8.7c-0.6-3.7,0-7.9-0.1-12.1c-0.1-4.7-0.3-8.9-0.4-13.6c-0.1-3.8,0.1-8.1-0.1-11.4
			c-0.9-15.1-1.6-30.3-3.1-45.3c-0.9-9.1-0.8-19.6-0.2-30.1c0.6-11.6,0.6-23.6,0.4-35.1c-0.4-19.8,0-40.2,0.7-60.1
			c0.2-5.1,0-10.2,3.4-15.8C261.6,414.9,261.2,439.5,261.1,464.1z M188.1,605.4C183.2,574,180,542.7,178,511
			c-0.2-3.1-0.8-5.3-1.1-7.6c-1.4,32.3,2.5,63.3,7.9,95c0.5,2.9,1.4,5.8,2.5,9.2C187.6,606.1,188.2,605.8,188.1,605.4z M195.3,632.2
			c-0.4-0.8-1.6-1.9-2.8-3.6c0.4,5.8,2,9.2,4.6,13.9C197.5,638.8,196.7,635.5,195.3,632.2z M196.9,603.9c1,12.1,4.2,25.7,9.3,36.7
			C203.8,628.2,201.4,615.7,196.9,603.9z M204.4,591.4c-1.5-11.6-2.5-20.7-3.5-30.4C200.4,574.5,201.1,580,204.4,591.4z M198.2,524
			c-0.2,0.5-0.4,1.4-0.6,1.8c0,0,0.3,0.4,0.5,0.4c0.2-0.5,0.4-0.9,0.4-1.4C198.5,524.4,198.3,524.4,198.2,524z M203,544.6
			c0.5,6.7,0.8,12.5,1.4,18.2c0.3,3.5,1.2,7.1,1.5,10.6C207.6,562.6,206.3,551.3,203,544.6z M214,618.8c-1-3.4-1.4-5.2-2-7.7
			C211.1,614.3,211.6,616,214,618.8z M205,497.5c0.1,0,0.1,0,0.2,0c0.1,4.6,0.3,8.8,0.5,13.4c0-0.5-0.3-0.4-0.3-0.4
			C205.3,505.9,205.1,502.2,205,497.5z M257.1,545.2c0.2,0,0.2,0,0.7-0.1c0.4,8.7,0.8,17.4,1.3,25.5c-0.5,0-0.6,0-0.7-0.4
			C256.6,564.1,257.5,553.4,257.1,545.2z M270.2,417.5c-3.3,19.3-3,39.9-1.5,59.3C271,457.4,271.6,437,270.2,417.5z M277.2,424
			c0.1-2.6-0.6-4-0.8-5.5c-0.5,0.1-0.7,0.2-1,0.8c-0.8,32.5-0.9,65,0,97.5C278.1,485.8,277,455,277.2,424z M289.2,411
			c-1.7,12.1-1.4,11.9,0.3,21C290.6,425.4,290.3,418.6,289.2,411z"/>
		<path class="st0" d="M355.9,487.1c-3.2,8.7-6.6,16.9-8.4,27.9c1.2,6.9,4.4,11.4,7.1,16.1c8.7,15.4,17.7,30.6,26.7,45.8
			c3.7,6.3,7.4,10.8,10.7,16.8c3.3,6.2,7.2,12.1,10,19.9c15.1,41.6,17.1,127.2-28,153.4c-3.8,2.1-7.3,4-10.5,5.7
			c-3.2,1.6-7.3,2.5-10.7,3.4c-2-4.2-3.7-9.2-6.1-12.8c-2.3-3.4-5.4-6-8.3-9c0.6-2.6,0.9-5.3,1.5-7.9c-0.5-0.5-1.1-1-1.5-1.1
			c-1.1-0.6-2.3-0.7-3.1-2.1c-1-2.4-0.7-5.5-0.1-7.3c1.5-2.1,3.1-4.7,4.8-6.4c8.5-8.5,15.1-19.8,21.4-29.8
			c12.2-19.3,18.7-54.5,4.5-75c-2.1,3.1,0.6,5.6-0.3,9.2c-0.7-2-1.6-4.1-2.2-5.6c-0.6-1.4-1-4.1-2-4.6c-2.9-2.5-5.8-4-8-10.6
			c-1.8-5.5-5.9-9.1-8.5-12.1c-2.9-3.2-5.8-6.5-9-9.4c-9.9-9.7-16.7-22.3-20.8-35.6c-6.2-20.3-5.8-41.8-3.8-62.8
			c1-8.6,2.8-17.4,4.8-25.3c11.8-41.3,29.3-91.7,68.8-113.8c6-3.2,11.3-1,15.9,4.1c11.6,12.8,17.1,28.4,22.4,44.7
			c1.1,4,2,8.6,2.8,13.2c1.2,13.5,1.5,25.7-3.9,38.5c-0.8,2.2-2.6,2.7-3.9,3.7s-2.6,2.1-3.6,2.6c-2.5-1.8-3.1,2.7-4.5,5.4
			c-2.6,3.8-5.5,8.2-9.4,13.2c0.7-6.1,1-10.5,1.4-14.4c-0.5,0-1-0.6-1.3,0c-1.9,4.4-3.1,10.5-6.6,12.2c-2.7-3.9-3.5-10.7-3.1-18.3
			c0.3-5.5,1-11.3,1.5-17.3c0.3-3.3,0.2-6.2,0.3-9c-3-2.8-5.4,1.2-7.8,4.1c-4.2,4.1-8.4,9.3-12.3,14.6c-1,0.1-1.8,0.1-2.5,0.2
			c-4.5-0.2-7.2,6.7-10.1,11.9c-2.3,4.1-4.9,8.2-5.8,17.6c2.5-4.1,4-6.7,5.6-9.3c1.8-2.9,4.1-6.4,6.2-9.9c-0.1-0.2-0.1-0.3-0.2-0.5
			C362.6,470.6,359,478.7,355.9,487.1z M360,396.3c-9,8.6-15,20.8-21.2,31.5c-0.8,1.2-1.5,3.6-1.9,5.3c-0.5,2.5-1.1,5.7,1,7.5
			c7.5-15.3,16.9-29.5,24.8-44.6C361,396.2,360.2,395.7,360,396.3z M341.1,552.3c2.5,7.7,5.4,9.6,9,9.4
			C347.6,557.6,346.1,550.8,341.1,552.3z M344.9,458.8c2.6-4.2,4.4-7.7,6.1-16.7C345.6,449.9,345.6,449.9,344.9,458.8z M350.8,476.7
			c2.8-3.6,4.8-7.6,5.8-16.5C351.4,468.4,351.4,468.4,350.8,476.7z M371.4,702.7c-4,5.8-7.7,11.5-10.7,19.4
			C367.7,720.1,370.9,714.4,371.4,702.7z M372.9,451.6c-2.4,3.5-4.7,6.4-6.8,9.9c0.1,0.2,0.1,0.3,0.2,0.5c1.1-3.4,2.7-6.8,4-10.3
			C371.1,451.7,371.9,451.7,372.9,451.6z M386.6,596.3c4.1,9.4,8.1,17,10.8,23.9c2.9,7.6,5,18,8.7,26.2c-0.6-12.7-2.9-17.4-7.5-28.8
			C393.7,605.6,392.2,600.5,386.6,596.3z M400.7,639.3c-0.9-3.1-2.1-7.7-5-9.2c0.2,2.6,0.2,4.1,0.5,5.7c2.1,8.2,4.5,16.9,6.8,24.9
			C404.8,652.1,402.8,645.9,400.7,639.3z M414.7,461.1c-1.1,2.7-1.8,5.6-2.7,7.1c-1.1,2-1.5,1.1-1.7-1.7
			C411.6,463.8,412.3,459.4,414.7,461.1z"/>
		<path class="st0" d="M472.7,489.5c-3.4,8-7.1,15.5-9.2,26c0.9,7,3.9,12,6.4,16.9c7.6,15.7,15.6,31.3,23.7,46.8
			c3.2,6.2,6.5,10.5,9.2,16.2c2.8,5.9,6.1,11.3,8.2,18.5c13.9,46.6-0.7,117.6-41,147.8c-3.9,2.9-7.5,5.5-11,7.9
			c-3.4,2.4-7.5,4.2-11.2,6c-1.4-3.9-2.6-8.6-4.6-11.7c-1.8-2.9-4.7-5.1-7.4-7.6c0.9-2.8,1.6-5.7,2.5-8.6c-0.4-0.4-1-0.9-1.4-0.8
			c-1-0.4-2.3-0.3-2.9-1.7c-0.8-2.3-0.1-5.6,0.8-7.6c1.8-2.5,3.7-5.4,5.7-7.4c8.9-10.4,16.8-21.4,24.5-32.5
			c12.6-18.2,23.8-52.2,10.7-73.3c-2.2,3,0.2,5.5-0.9,8.9c-0.6-2-1.3-4-1.8-5.4c-0.4-1.4-0.7-4-1.6-4.5c-2.6-2.5-5.4-4-7.1-10.6
			c-1.4-5.5-5.2-9.2-7.7-12.3c-2.7-3.4-5.4-6.8-8.4-10c-9.6-10.8-15.7-24.4-19.1-38.4c-5.3-21.5-4.2-43.8-1.4-65.6
			c1.3-8.7,3.3-17.5,5.6-25.1c11.6-35.5,29.2-83.8,69.3-94.3c5.8-1.4,10.9,2.1,15.4,8.2c10.2,13.6,17.4,29.7,21.5,46.3
			c1,3.9,1.8,8.2,2.6,12.6c2.4,10.8,0.4,24.9-4.4,34.8c-0.9,1.9-2.6,2.1-3.8,3c-1.3,0.8-2.5,1.7-3.6,2c-2.3-1.9-3.1,2.1-4.4,4.5
			c-2.6,3.2-5.5,6.9-9.4,11.1c0.8-5.6,1.3-9.7,1.7-13.3c-0.5-0.1-0.9-0.7-1.2-0.2c-1.9,3.9-3.2,9.4-6.7,10.6c-2.5-4-3-10.6-2.5-17.7
			c0.4-5.1,1.2-10.5,1.8-16.2c0.3-3.1,0.3-5.8,0.4-8.4c-2.8-3.2-5.2,0.2-7.6,2.5c-4.1,3.1-8.3,7.3-12.2,11.6c-1-0.1-1.7-0.2-2.5-0.3
			c-4.4-1.2-7.2,5.1-10.1,9.5c-2.3,3.5-5,7-6.2,16.1c2.6-3.5,4.2-5.8,5.8-8c1.8-2.4,4.2-5.4,6.3-8.4c-0.1-0.2-0.1-0.3-0.2-0.6
			C479.8,474.7,476,481.9,472.7,489.5z M478.2,401.1c-8.9,5.8-15.6,16.6-21.4,25.3c-0.8,1-1.6,3.3-1.9,4.8c-0.6,2.4-1.2,5.4,0.9,7.9
			c7.6-13.1,17.6-24.3,25.2-37.5C479.2,401.2,478.5,400.6,478.2,401.1z M455.5,551.6c2.1,8,4.9,10.2,8.5,10.4
			C461.8,557.8,460.6,550.9,455.5,551.6z M462.6,459.1c2.6-3.5,4.5-6.6,6.4-15.2C463.4,450.4,463.4,450.4,462.6,459.1z M468,478.2
			c2.9-3,5-6.5,6.1-15.1C468.8,470.1,468.8,470.2,468,478.2z M474.5,699.9c-4.5,6-8.6,12-12.5,20.3
			C469.2,717.1,472.9,711.2,474.5,699.9z M490.3,458.3c-2.4,2.9-4.7,5.3-6.8,8.2c0.1,0.2,0.1,0.3,0.2,0.6c1.1-3.1,2.8-6.1,4.1-9.1
			C488.5,458,489.3,458.1,490.3,458.3z M497.6,597.8c3.3,9,6.6,16.1,8.7,22.5c2.2,7,3.4,16.7,6.2,24c0.4-11.7-1.4-16-4.9-26.4
			C503.8,606.7,502.6,601.8,497.6,597.8z M508,637.9c-0.6-2.8-1.4-7.1-4-8.4c0,2.4-0.1,3.8,0,5.3c1.4,7.6,2.9,15.5,4.5,22.8
			C510.9,649.4,509.4,643.9,508,637.9z M530.4,474c-1.1,2.4-1.9,4.9-2.8,6.3c-1.1,1.7-1.5,0.8-1.6-1.8
			C527.3,476.1,528.1,472,530.4,474z"/>
		<path class="st0" d="M586.9,495.8c0.5-5.6,1-11.7,2.5-17.7c-0.8,9.4-1.8,18.3-2.4,27.6c-0.6,8.9,0.4,11.8,4.9,12.8
			c6.6,1.4,13.5,2.2,20.6,3.3c7.1,1,14.3,3.1,20.3,9.5c0.6,3.5,2,6.4,0.4,11c-1.3,3.9-0.2,8.7-2.3,11.4c-2.4,3-1.4,9.3-4,11.6
			c-3.2,2.8-9.4-0.1-13.9,0.5c-4.5,0.5-9.9-0.1-14.8-0.3c-4.7-0.2-9.5-0.4-14.5-0.2c0.1,0.9,0,1.8-0.1,2.7c12.5,1,25,2.2,37.5,2.8
			c-0.1,0.4-0.1,0.8-0.2,1.2c-10.7-0.5-21.6-1.1-32-1.2c-8.4-0.1-10.3,2.5-12.5,19.3c-1.8,14.1-3.6,28.5-5.5,42.6
			c-1.4,9.8-2.7,18.8-4.2,27.8c-0.7,4.5-1.6,9.1-2.4,13.3c1.8,3.2,4.6,1.5,7,0.2c12.5-5.7,24.8-9.8,37.8-13.1
			c8.1-2.1,10.5,4.6,9.5,14.6c-0.8,7.7-5.3,15.1-10.5,18c-2,1.2-3.9,1.6-5.8,2.3c-1.3,0.5-2.4,1.5-4.4,4.5c3.6-0.8,6.6-1.2,9.8-1.8
			c-1.8,5.2-1.8,5.2-6.7,12.7c-1.7,0.9-3.8,2.1-5.7,3.1c-17.8,8.9-36.9,17.2-54.6,25c-2.5,1.1-5.3,2.7-7.5,3.2
			c-1.4,0.3-3.6,0.4-3.8-1.9c-0.3-6.9-3.3-6.9-5.9-8.3c-0.4,0.1-0.7-0.4-0.8-1c-0.2-1.3,0.4-4.2,0.3-5.8c-0.9-5.9,0.8-11.3,4.1-16.2
			c0.5-0.9,0.9-2.3,1.8-4.5c-2.6-7-2.2-17.8-1.5-28.8c2.1-34.4,4.6-68.8,7.9-103c3.5-36.6,7-73.3,12.7-109.7
			c1.4-10.8,3.2-21.5,5.3-32.2c1.7-0.1,3.5-0.8,5.2-0.9c0.1-1.5,0.7-3.4,0.3-4.5c-1-4.3-2.6-7.8-4.1-12.8c1.4-8.9,5.2-12.6,9.6-14
			c3.2-1,6.5-1.3,9.7-0.8c9.8,1.3,19.7,2.4,29.4,5.2c11.6,3.4,23.3,7.4,34.4,11.7c7.3,2.8,14.6,8.2,20.7,14.9
			c3.6,3.9,6.1,7.8,4.6,15.8c-0.1,0.8,0.5,2.4,0.6,3.7c-2.6,8.8-8.5,0.1-11.5,6.4c0.8,4.6,1.8,9.3,1.6,13.5c-0.2,3.8-1.7,7.6-2.7,12
			c-6,2.9-9.7,2.5-18-2.8c0.2-1.7,0.3-3,0.5-5.2c-11.1-8.1-33-10.9-45.9-7.4c-2.2,16.9-4,34.2-3.7,51.3
			C586.2,508.9,586.3,502.3,586.9,495.8z M532.3,682.1c4.1-37.1,7.2-74.2,9.6-111.5c0.1-1.4-0.2-2.9-0.8-8.7
			c-1.4,7.6-2,11.9-2.3,15.2c-2.8,35.2-6.5,70.4-8.8,105.7c-0.1,0.9,0.5,2.1,0.8,3.3C531.5,684.8,532.2,683,532.3,682.1z
			 M552.3,478.5c0.8-8.9,2.9-18.6,1.8-28.5c-1.4,2.8-2.8,6.6-3.3,10.5c-1.3,15.2-1.8,29.7-1.4,45
			C550.3,496.7,551.4,487.9,552.3,478.5z M580.8,411.4c1.2,0.3,2.7-0.2,3.9,0.1c-6.2-4.8-12.2-7.6-18.9-3.7
			C571,409.2,576.1,410.3,580.8,411.4z M580.9,465.3c-1,11.3-2.2,23-3.4,34.2c-0.6,5.6-1.6,11.6-1.7,16.5c-0.1,1.8-0.4,4.2,1.1,3.9
			c4.3-20.3,6.5-42.2,6.2-63C581.3,459,581.1,462.4,580.9,465.3z M564.4,663.2c0.2-1.3-0.1-2-0.3-2.8c-0.4,0.9-0.8,2-1.2,3.5
			c-0.2,0.8,0.1,1.6,0.2,3.6C563.8,665.3,564.3,664,564.4,663.2z M596.4,449.4c-0.9-0.5-2.1-1-2.2,2.8c3.2,3.2,6.6,3,10.2,0.6
			C601.9,451.8,598.6,450.7,596.4,449.4z M616.2,552.3c-9-1.8-20-0.3-30.4,1.3c-0.5,0-0.6,0.9-1.4,2.2c1.3,0.5,2.6,1.5,3.5,1.1
			c11.1,0.3,22.3,2.3,33.4,1.3C620.7,552.7,618.3,552.7,616.2,552.3z M566.4,722.1c4-0.5,8-1.8,12.5-5.2
			C575.3,717.4,571.1,718.7,566.4,722.1z M588.7,713.1c1.2,0.1,2.5-0.2,4.1-0.9c0.9-0.4,1.7-1.1,2.8-1.5
			C594,709.6,591.7,710,588.7,713.1z"/>
		<path class="st0" d="M715.1,448c0.2,0.1,0.4,0.5,0.7,1c1.1,4.1,0.6,7.9,0.2,11.7c-0.7,7.4-1.8,14.8-0.4,22.2
			c0.4,2.6-0.3,5.6-0.7,8.3c-2.4,16.9-5.8,34.2-9.1,50.9c-2,10.3-5.1,20.7-8.6,31c-2.5,7.2-5.5,14.7-8.1,21.5
			c-6.2,15.9-14.7,31.7-21.7,47.7c-0.8,1.7-1.6,3.4-2.2,4.6c0.2,2,1.8,1.3,3.5,0.5c4.1-1.8,8.3-4,12.7-6.4c4.7-2.6,9.8-5.2,13.5-6.9
			c2.4-1.1,5.4-3.2,8.1-5.1c1.4-0.9,2.6-1.5,2.3-0.6c-0.4,1.2-2.7,4-4.7,5.8c-1.5,1.3-2.9,2.4-4,3.2c-1.5,1.1-3,2.3-4.5,3.5
			c0,0-0.3,0.4-1,1.2c1.3-0.8,2.4-1.4,3.4-1.9c-1.1,1.3-2.4,2.9-4.2,5.1c-2.7,2.5-6.1,5.6-9,8.3c0.6,0.1,1.3,0.1,2-0.1
			c0.1,0.1,0.3,0.1,0,0.5c-0.6,1.3-2.2,3.2-6.2,7.4c-2.6,2.3-5.4,4.7-8.2,7.1c-0.6,0.5-1,0.8-1.6,1.3c-6.3,5.2-13.3,10.5-20.2,15.4
			c-3.9,2.8-7.9,5.4-13.1,10.2c-1.1,0.9-2.5,2-3.2,2.1c-1.3,0.1-2.9,1.2-5.2,3.1c-2.5,2.2-2.3-0.2-4.4,1c1.2-1.6,1.7-2.3,2.7-3.7
			c-3.8-0.5-1.4-8.3,1.6-17.6c7.9-24,15-48.4,22-72.7c14.7-50.6,24-102.8,29.4-155.3c-0.1,3.7-0.2,7.8-0.6,11.7
			c-5.2,51.6-14.7,103.2-29.3,152.6c-6.6,22.3-13.8,44.6-21.4,66.6c-0.9,3-2.6,6.9-1.8,8.8c1.1-2.2,2-3.6,2.5-4.8
			c10.3-28.7,19.9-57.6,28.2-86.8c5.9-20.8,11.1-42,15.2-63.1c4.6-23.7,8.1-48.5,9.8-72.3c0.3-4.3,0.4-8.9,1.2-13
			c0.7-3.3,2.6-5.4,3.9-8.3c1.3,3.9,3,3.5,4.7,2c0.2,0.5,0.8,1.6,0.8,2c0,5.6,0,11.2,0.1,16.8c0,2.8,0.1,5.2,0.1,7.9
			c0,0.4,0.4,0.6,1,1.2c2.4-8.8,0.6-18.7,1.1-28c1.7-1.1,3.4-1.8,5.3-2.8c0,0.4,0.6,1.1,0.6,1.9c-0.6,4.8-0.8,9.8-0.3,14.7
			c2.1,0.2,1.6-3.3,2.1-4.8c0.5-1.6,0.3-3.7,0.7-5.5c0.4-2.1,1-3.8,1.6-5.8c6.1-0.8,8,1.4,11.3,13.5
			C714,453.5,714.5,450.7,715.1,448z M638,661.1c0.3-0.6,0.2-0.9,0.3-1.5c-0.4,0.7-1,1.5-1.5,2.2c0,0,0.1,0.5,0.2,0.8
			C637.2,662.2,637.9,661.4,638,661.1z M627.1,690.2c2.7-5.3,3.1-8.4,4.3-12.5C627.3,685.8,627.4,685.9,627.1,690.2z M656.5,629.8
			c-0.5,1.3-0.4,2.2-0.8,4c1.3-1.7,2.1-2.5,2.4-3.1c4.2-10.2,7.9-21.2,10.2-32C663.8,608.7,659.8,619.3,656.5,629.8z M694.3,527.8
			c-0.9,4.5-2,9.1-2.9,13.4c-0.9,4.3-2.2,8.9-2.1,13.4c7.4-21.9,13.6-46.3,13.7-69.6C698.7,498.7,697.2,513.7,694.3,527.8z
			 M665.1,644.5c0.7-1.4,1.3-2.9,1.9-4.6c-0.2,0.1-0.4,0.1-0.6,0.2c-0.8,1.7-1.5,3.2-2.1,4.6C664.7,644.6,664.9,644.6,665.1,644.5z
			 M706.3,527.1c-2.1,7.6-4.1,15.4-5.8,22.4c-0.5,1.9-0.9,3.6-1.2,5.5C703,546,705.8,536.9,706.3,527.1z M664.5,658.5
			c-1.7,0.9-3.5,1.8-5,2.6C661.6,661.7,661.6,661.6,664.5,658.5z M660.8,674.2c1.4-1.2,2.5-2,3.7-3.1c0.2-0.2,0.4-0.5,0.5-0.7
			c-1.2,1-2.3,1.8-3.4,2.6C661.5,673.2,661.1,673.7,660.8,674.2z"/>
	</g>
</g>
<g>
	<g>
		<path class="st0" d="M97.5,184.8c0.4-2.3,3.8-4.1,5.3-6.8c-0.9-0.4-1.2-1.7-2.2-1.7c-0.9-0.1-2.6,0.6-3.6,0.4
			c3-3.1,3.4-4.4,2.2-4.4c1.3-1.4,3.1-3.6,4.6-5.1c0.1-0.4,0.3-0.8,0.3-0.9c-1.8,0.6-3.6,1.3-5,1.7c0.4-0.8,0.3-1,0.7-1.6
			c2.2-3.8,4.2-5.8,9.9-10.9c9-8.2,18.3-16.5,27.5-24.2c12-10,24.3-19.5,37.4-27.5c4.4-2.7,8.6-4.2,13-5.8c3.4-1.3,4.8,1.4,6.2,3.9
			c1.1,2.1,2.1,5.6-0.6,11.7c-0.9,2.2-0.3,3.6-0.3,5.1c0.2,2.3,1.2,3.7,1.4,6.3c-1.2,1.7-2,3.6-3.2,4.4c-3.1,3.1-5.2,6.4-6.2,10.3
			c-4.8,17.5-8.4,36-12.5,53.6c-3.5,15.2-7.5,30.8-11.2,46.2c1.7-12.7,3.6-25.3,6-37.9c0.1-0.4-0.9-0.1-1.3-0.7
			c-1.3,4.6-2.5,9-3.5,12.9c-1.2,4.3-2.2,8.3-3.3,12.6c-4.5,17.5-8.5,35-12.2,52.6c-0.4,3.2-2.1,6.3,1.1,8.2
			c0.6,0.3,0.7,2.7,0.2,4.8c-8.1,28.5-20.2,57.6-43.8,76.3c-0.7,0.4-1.1,0.8-1.9,1.7c-14.9,9.5-30.7,17-47.4,20.8
			c-12.3,2.8-25.7-1-33.6-11.7c4.5-2.8,8.2-5,12.1-8.4s7.7-6.6,11.3-10.6c8.6-8,16.1-18.4,22.4-28.3c3.9-5.9,6.9-12.5,13.2-16.1
			c0.5-0.8,0.5-1.2,0.9-1.6c5.7-10.6,13.9-20.1,17.9-31.2c6.4-18,10.8-37.6,15-56.5c3.3-14.7,8-28.9,13.2-43.1
			c2.5-6.7,5.6-13.9,6-19.3C120.5,168.4,108.8,177.5,97.5,184.8z M67.6,346.7c-6.1,8.3-14.5,14.2-20.5,23.9
			c7.9-1.2,10.2-2.6,17.1-9.2c11.4-10.6,17.9-25.4,21-40.6C79.3,329.3,73.7,338.4,67.6,346.7z M114,279.3c0.2-1.5,1.9-5.2-2.3-5.2
			c-3.1,11.9-7.9,23.8-8.9,36.1C108.5,301.5,112.4,289.5,114,279.3z M142.5,160.5c-1.3,3.3-2.5,6.3-3.9,10
			C143.3,164.3,143.3,164.2,142.5,160.5z M121.5,250.9c4.8-9.6,8.6-21.7,9.4-32.5C125.6,227.6,121.7,240.2,121.5,250.9z
			 M138.8,193.2c-3.1,3.9-3.5,6.3-2.3,8.9C140,197.7,140.7,195.2,138.8,193.2z M148.6,169.2c0.9-2.8,1.7-4.8,2.6-7.6
			c-0.6,0.2-0.8,0.3-1.1,0.5c-1,2.7-1.7,4.8-2.6,7.6C147.7,169.6,148,169.4,148.6,169.2z M135.3,248c7-13.3,11.4-28.3,13-43.4
			C142.4,218.5,138.1,233.1,135.3,248z M161.5,207.3c1.4-5,3.4-10.6,2.6-15.6c-9.6,20.3-13.6,43.4-17.5,65.3
			C153.6,241.1,157,223.2,161.5,207.3z"/>
		<path class="st0" d="M322.4,95.2c3.4-0.3,3.5-2.5,3.6-4.3c0.5-6.7,1-13.8,1.4-20.3c0.5-7.9,0.1-15.2,1.1-22.4
			c0.7-5.5,4.5-8.6,8.3-5.7c1.4,0.4,2.2,1.6,3.3,2.7c1.1,1.1,1.4,1,6.4,0c1.4,3.4,0.7,7.7,0.8,12c0.2,4.6,0.4,9.3,0.6,13.7
			c0.2,4.4,0.7,8.5,1.6,12.5c2.1-10.4,1.3-19.8,0.6-29.3c-0.3-2.3-0.3-4.7-0.1-7.2c0.3-3.4,4.4-5.9,5.7-4.9c1.1,0.8,2,5.6,3.5,9.4
			c1.2-2.4,2.1-4.1,3-6.5c3,6.8,0,14.7,3.1,22.2c1.2-2.2,2.1-4,2.1-5.3c0.1-6.2,0.3-13.1-0.2-19.1c-0.2-1.8-0.3-3.8-0.4-6.4
			c3.3,1.3,5.2,2.3,4.8,5.7c-0.4,4.3-0.4,9.1-0.4,13.7c0.1,4,0.1,8,1.4,11.6c3.3,14.6,4.6,26.4,3.4,40.8c-1,11.6-0.7,24.8-0.8,36.5
			c-0.1,15.5-2.7,31.1-5,46.9c-1.7,11.2-4,22.6-6.4,33.6c-2.8,12.6-6.9,25.1-11.7,36.7c-4.8,11.5-9.6,24-14.3,35.9
			c-3.7,9.4-7.8,18.1-14,26.5c-12.2,17.2-31.2,31-51.3,35.5c-5.7,1.3-12.6,3.1-18.6,5.2c-9.7,3.4-22.6,5.7-33.1,4.6
			c-6.4-0.7-12.4-3.9-16.9-9.2c-10-10.2-16-23.7-19.1-37.6c2.6,3.4,4,4.9,5.7,7.2c1.1-12,0.1-20.4-4.8-24.5
			c-4.9-4.1-5.2-10.8-4.9-18.4c1.3,1.4,1.9,1.7,2.8,3.2c0.8-1.8,2.3-3,2.3-3.8c0.6-8.1-0.4-15.7-3.1-22c-0.6-1.1-1.4-3-0.9-4.3
			c3-12.4,0.5-21.8-0.6-31.9c-0.1-3.5,0.3-7.5,0.4-11.2c0.1-5-0.2-11.5,0.4-17.4c0.6-5.6,2.1-11.6,3.4-17.7c6.2-6.2,8-12.9,9.3-19.9
			c2.2-12.5,5.3-25.2,8.6-37.5c0.6-2.5,0.8-4.1-0.2-5.9c-1.3,4-2.7,8-3.9,11.7c2.1-12.6,7.2-24.2,12.3-35.8c2.5-2.3,4.7-4.1,6.7-5.6
			c0.6,0.3,1,0.4,0.8,1.1c-1.4,7.1-3.2,15-4.3,22.4c3.9-10.4,7-21.5,12.4-31.3c0.7,0,1.3,0.3,2.2,0.6c3.7-4.3,4.5-10.6,9.4-15
			c1.1,0.1,2.1,0.6,3.2,1c2.2-3,4-5.5,6.9-9.7c0.4,1.9,0.7,3.6,1.1,5.3c1.8-2.5,3.6-5.4,5.5-8.2c2.4,0,4.2,0.2,6.2,1
			c-0.5,7.8-2.7,17.4-4.6,25.7c-4.5,19.4-9.5,39.3-13.5,59.1c-2,9.7-4,20-1.6,28.7c0.7,2.1,0,5.3-0.4,8.5c-2,17-4.4,34.4-3.2,51.7
			c0.1,2.4-0.7,5.5-1.3,8.1c-2.3,13.1-1.4,28.2,8.2,38.3c2.6,2.2,4.2,5.2,6.1,7.6c9.8,11.6,22.6,0.7,29.2-5.9
			c7.7-7.7,14.7-21.2,17.8-32.7c1.9-6.8,4.7-13.8,6.2-20.7c0.9-4.2,6.3-4.1,5.1-9.1c-0.2-3.2,1.3-7.3,1.8-11c0.5-4.1,0.9-7.9,1.5-12
			c0.4-3.3,1.3-7.1,1.4-9.9c0.6-11.8,1.5-24.6,0.3-36.5c-0.7-7,0.5-15.2,1.9-23.2c1.5-8.7,2-17.1,2.1-25.7
			c0.1-13.3,0.7-27.3,1.6-40.7c0.2-3.3,0-6.6,3.9-10.2C323.5,62.4,323,78.8,322.4,95.2z M198.1,244.3c3.6-29.6,8.4-58.9,13.8-88.1
			c0.5-2.6,0.2-4.3,0.3-6.1c-9.3,29.1-13.4,58.2-16.7,88.5c-0.3,2.9,0,5.6,0.4,8.8C197,245.3,198,244.7,198.1,244.3z M199,270.7
			c-0.3-0.8-1.9-1.2-3.2-2.6c-1.9,6.6-0.8,9.7,1.7,13.8C199.9,277.1,199.8,273.8,199,270.7z M212.5,237.7c-1.4,11.9-3.1,24.4,1.5,36
			C214.7,261.8,215.7,249.4,212.5,237.7z M227.9,220.6c1-11.1,1.9-19.7,2.9-28.5C226.8,205.4,226.2,210.7,227.9,220.6z M235.2,159.3
			c-0.4,0.5-0.8,1.4-1.2,1.8c0,0,0.3,0.3,0.6,0.2c0.4-0.5,0.7-1,0.8-1.4C235.5,159.6,235.2,159.7,235.2,159.3z M237.4,175.9
			c-0.7,5.9-1.6,11.2-2.2,16.5c-0.3,3.2,0,6.3-0.4,9.5C240.1,190.5,240.5,180.7,237.4,175.9z M234.5,244.4c-0.4-3.2-0.7-4.8-0.8-7.2
			C231.4,241.2,231.6,242.8,234.5,244.4z M248.5,134.2c0.1,0,0.2-0.1,0.3-0.1c-0.5,3.8-1,7.2-1.5,11c0-0.4-0.3-0.3-0.3-0.3
			C247.5,141,248,138,248.5,134.2z M312.1,157.3c0.3-0.1,0.3-0.1,1-0.2c-0.3,7-0.7,14.1-1,20.8c-0.7,0.2-0.9,0.1-1-0.2
			C309.7,174,311.8,163.9,312.1,157.3z M334.1,63c-3.5,12.9-3.4,27.1-2.1,40.3C334.9,90.3,336,76.3,334.1,63z M342.9,67
			c0.1-1.7-0.8-2.6-1.1-3.5c-0.6,0.1-0.9,0.1-1.2,0.5c-0.5,22.6-0.8,45.1-0.9,67.7C344,109.8,343.2,89,342.9,67z M357.7,58.6
			c-1.6,7.5-1.3,7.5,1.1,13.4C360.1,67.7,359.5,63.4,357.7,58.6z"/>
		<path class="st0" d="M558.4,280.7c-0.4-1.4-0.7-3.2-1.1-5.5c-4.5-0.4-6.1,2.9-8.6,5.9c-2.8,3.5-5.6,7.3-10.8,7.6
			c-4.5,0.2-9.2,4.7-13.5,8.4c-11.6,10-23,20.1-34.5,30.3c-7.1,6.3-14.5,11.2-23.9,13.8c-4,1-7.9,0.4-10.9-4
			c-4.1-5.8-9.7-8.8-16-6.8c-6.2,2-9.7-3-15-6.8c-1.9,1.2-4.2,4.1-6.7,4.9c-2.6,0.8-5.4,0.3-8.3,0.2c-2.4-11.4,0.5-22.4-2.9-33.7
			c-1.5,3-3,5.2-3.1,6.9c-0.2,8.2-0.5,16.4-0.9,27.2c-0.9-3.9-1.3-5.2-1.2-6.5c-0.9-13.3-1.4-25.5-0.4-38.8
			c1.2-5.6,0.2-12.1-2.9-17.8c-2.9-5.4-3.8-13-2.6-19.7c3.7-34.7,0.4-68.2-2.5-102.7c-2.5-29.5-4.2-59.1-5-88.8
			c-0.1-2-0.8-4.9,2.2-6.6c2.5,30.1,3.7,60.3,6.2,90.3c2-3.5,3.7-4.2,3.6-5.3c-0.3-9.7-0.7-19.1-1.3-28.3c-1.1-18.8-3.5-38-3.1-57.2
			c0.3-0.7,0.6-1,1-2.9c4.7,11.1,5.1,25,7.9,36.7c1.9-6.6,0.9-11.7,0.3-16.4s-1.7-9.5-2.2-13.6c-0.2-2.2-0.6-4.9,0.5-5.8
			c3.1-3.5,2.4-8,2.5-13.3c2.3,1.9,3.6,3.2,5.2,4.5c3.2-4,5.2-5.3,7.2-5.1c3.5,0.4,5.9,3.1,8.2,6.7c1.4-0.5,2.7-1.7,3.9-1.6
			c4.9,1.3,8.6-0.9,12.4-2.3c9.6-4.2,20.2-5.2,30.2-4.6c11.6,0.7,22.6,8.2,32.6,14.3c1.9,1.4,4.1,2.6,6.1,4.3c2.9,2.9,3.9,1.4,6,0.9
			c3.6,2.8,7.4,6,11.2,9.6c20.9,20.2,38.5,42.4,53.6,67.3c5.9,12.1,10.9,24.1,14.4,37.2c3.8,14.3,4.3,29.6,1.2,44.1
			c-2.8,12.7-6.8,25.3-10.5,37.8c-2.1,5.9-5.2,9.5-10.2,10.1c-2,0.7-4,0.5-5.3,1.8c-4.4,6.7-9.3,12.9-11.2,22.3
			c-0.3,0.3-1,1-1.4,1.3C558.7,281.1,558.6,280.9,558.4,280.7z M398.8,244.7c3.3-3.4,4-5.9,0.1-10.8
			C398.9,238.8,398.8,240.9,398.8,244.7z M401.1,203.5c3.3-15.2,2.5-32.8-0.2-48.1C398,170.6,397.8,188.3,401.1,203.5z M406.1,285.7
			c1.9-5.6,1.7-9.9,0.3-16.7C404.5,275.8,404.4,280.1,406.1,285.7z M413.4,266.9c-0.4,2.1-1.2,4.2-1.2,5.5c0,2.1,0.3,3.8,0.6,6.4
			C415.9,272,415.9,272.1,413.4,266.9z M423.1,106.8c0-5.8,0.8-11.7-0.6-17.4C420.4,94.9,420.7,100.6,423.1,106.8z M431.5,118.1
			c0,0.4,0.1,1.1,0.5,1.9c0.3,0,1.3-0.3,1.3-0.3c0.3-0.7-0.1-1.8-0.2-2.9C432.4,117.5,431.8,117.4,431.5,118.1z M430.8,95.1
			c0.5,1.8,0.6,3.6,1.1,5.4c0.3,0,1,0.1,1.3,0.1c-0.1-1.8-0.3-3.2-0.4-5.3C432.4,95.2,431.4,95.1,430.8,95.1z M446.5,206.5
			c-0.1-0.4-1.1-0.9-1.4-1.3c-0.3,1.6-1,2.7-1,4c0,0.4,1.1,0.9,2.2,2.6C446.2,209.3,446.9,207.5,446.5,206.5z M510.8,93.5
			c-5.4-2.6-11.9-6.1-17.2-7.6c-9.9-2.8-25.7-3.6-34.8,3.5c-1.9,1.8-4.1,2.6-7.7,1.1c-4.3-1.8-7,1.2-6.7,6c0.2,2.8,0.5,5.3,0.8,8.2
			c0.7,7.6,1.4,15.2,2,23.4c-2.8-11-2.1-21.8-5.3-31.9c0.3,25.6,0.8,51,2.5,76.6c0,0.4,1.1,0.5,1.4,0.9c0.6-1.5,0.9-3.8,1.8-6.9
			c0.5,3.2,0.9,5.2,1,6.7c0.2,21.2,0.7,42.2,2.7,63.4c0,1.7,0,2.9-0.3,4.1c-4.3,9.1-0.7,18.8,2.4,29.5c2.9-1.3,5.8-2.2,8.3-4
			c18-13.1,34.6-27,48.8-43.8c12.1-14.3,22.1-32.4,25.9-51.4c2.2-11.2,1-23.3,0.6-34.6c0,0-0.1-0.8-0.2-1.1c-0.5-3-1.7-5.8-4.6-6.9
			c-3.2-1.2-4.1-4.6-5.6-7.8c1.9-0.9,1.6-3.8,0-6.3c-2.4-4.8-5.4-9.3-7.7-13.3C516.8,97.6,514.1,95.1,510.8,93.5z M459.5,285.6
			c14.5-6.6,27.5-16.2,39.3-26.9c5.9-5.1,11.1-11.1,16.8-16.5c2.3-2.4,4.7-5.6,3.3-12.6c-5.6,4.9-10.3,10.5-15.4,15.3
			c-5.1,4.8-10.3,10.6-15.6,14.8c-5.8,4.7-12.7,8.2-18.8,13.1c-5.3,4.3-12.7,6.7-16.5,15.3C454.8,287.1,457.4,286.6,459.5,285.6z
			 M547.4,300.4c-5.3,3.9-10.7,8.2-14.8,14.8c-1.5,1.9-3.3,3.6-5.1,4.5c-3.6,2.7-7.7,5.7-11.7,8.2c0.1-1.8-0.2-2.7,0.1-3.1
			c8.9-9.2,17.9-18.3,26.9-27.4c2.1-2.1,5-3.1,7.7-4.5c2.1-1.1,3.8-2.5,5.6-3.7c-1.7,1.3-3.5,2.5-5.6,3.7c0-7.4,3.4-10.4,7.9-12.2
			c0.1,0.2,0.2,0.3,0.4,0.5c0,0.9-0.3,1.6-0.3,2.5c-0.7,1.5-1.7,3.4-2.4,5.4C554.8,294.9,551.2,297.9,547.4,300.4z M535.1,246
			c-4.3,3.5-7,6.3-10.1,8.9C533,255.1,533.4,255.2,535.1,246z M522.2,112c1.4,2.8,2.9,5.6,4.3,8.8c-6.2-4.4-11.4-10.2-16.1-17.9
			c1.5-3.1,4.5-1,7.3-0.3C519.2,106.1,520.6,108.9,522.2,112z M545,264.2c-4.8,0-6.9,2.5-8.2,6.9C540.6,271.6,543.4,269.7,545,264.2
			z M552.6,266.2c-6.1,4.3-11.6,8.1-15,15C547.7,278.6,551.2,275.6,552.6,266.2z M558.8,281.3c0.3-0.3,1-1,1.4-1.3
			c2-1.2,4.4-2.2,6.4-4.2c-1.6,4.3-3.6,8.4-8.1,8C558.5,282.9,558.8,282.1,558.8,281.3z M591,154.9c-0.2-0.1-0.4-0.1-0.6-0.2
			c-0.1,0.7,0,1,0.3,2.2c0.3,0.1,0.6,0.2,0.9,0.3C591.3,156,591.2,155.6,591,154.9z"/>
		<path class="st0" d="M648.1,170.2c-1.6-4.5-3.4-9.4-4.2-13.5c2.9,7.4,5.2,14.3,8.1,22.1c2.7,7.4,4.9,10.5,10.6,14
			c8.2,5,16.3,10,24.9,14.8c9.7,5.5,19.7,11.4,28.6,18.3c2.7,3.6,5.9,6.8,6.5,10.9c0.5,3.2,4.5,8.9,3.4,10.6
			c-1.3,2.1,2.6,9.5,1.1,10.6c-2.4,1.8-13-3.9-18.5-5.9c-6.2-2.2-12.8-6.2-19.2-9.9c-6.1-3.5-12.3-7-18.7-10.1
			c0.5,1,0.7,1.8,0.9,2.6c16.7,9.6,32.7,19.4,50.5,26.7c0.1,0.4,0.2,0.8,0.4,1.2c-15.2-5.1-29-13.9-42.9-21.4
			c-10.9-5.9-12.4-4.6-9.5,11.1c2.6,14,5.1,27.9,7,42c1.4,10.1,2.3,19.4,3.1,29.1c0.4,4.8,0.5,9.7,0.7,14.2c4,6,8.1,6.8,11.5,7.8
			c20.7,6.2,39.3,15.3,60.2,16.8c13.4,0.9,24.1,10.5,29.4,22.9c4.4,10.2,0.5,19.1-8.9,21c-3.8,0.8-7.7,0.6-11.3,0.7
			c-2.5,0.1-4.3,1-6.8,4.1c7.5,0.8,14.2,1.5,21.1,2.1c0.2,6.7,0.3,6.7-5.5,15.3c-3.5,0.4-7.5,1.3-11.5,1.5
			c-37.9,2.2-66.3-19.1-99.5-32.5c-4.1-1.7-8.8-2.9-13-4.9c-2.5-1.2-6.6-3.8-7.4-6.8c-2.1-9.1-7.4-12.2-12.4-16.5
			c-0.7-0.3-1.3-1-1.6-2c-0.5-1.5-0.1-4.6-0.7-6.6c-2.7-7.9-0.9-12.7,3.6-15.5c0.7-0.6,1.1-1.8,2.1-3.7c-5.5-9.6-8.1-22.6-8.9-33.6
			c-4-32.1-8.2-64.5-13-96.1c-4.2-27.8-10.1-55.9-14.8-84c-1.7-7.6-2.9-14.5-4.2-21.4c1.8,0.5,3.4,0.7,5.2,1.2
			c-0.4-1-0.4-2.2-1.3-3.1c-2.5-3.4-5.2-6.3-8.3-10.2c-1.5-5.6,0.9-6.8,4.7-6.2c2.6,0.4,5.7,1.4,8.7,2.8c9.5,4.4,18.6,8.8,27.7,14.7
			c10.9,7.1,21.8,14.9,32.3,22.7c6.8,5.1,14.5,11.9,22.9,19.5c4.9,4.5,9.1,8.3,13.1,13.7c0.5,0.6,1.9,2,2.8,3.1
			c3.9,5.8-6.1-3.2-4.6,0.8c3.4,4,7.1,8.2,9.5,11.6c2.2,3.1,3.1,5.8,4.9,9.2c-3.7,0.6-7.8-0.9-18.6-8.7c-0.7-1.4-1.3-2.5-2.3-4.3
			c-14.2-11-31.5-22.2-48.6-27.2c4.8,13.9,9.8,27.8,15.6,41.3C652.4,181.1,650,175.5,648.1,170.2z M630.7,318.4
			c-2.1-35.7-6.8-70.5-13.9-105.4c-0.2-1.2-1-2.7-3.5-8.1c0.2,6.1,0.5,9.6,0.9,12.5c5.7,33.2,8.8,66.7,12.8,100.1
			c0,0.9,1.4,2.7,2.1,4.3C630.1,320.8,630.7,319.3,630.7,318.4z M603.2,140.9c-1.8-6.5-2.5-13-6.9-20.7c-0.6,1.5-1.1,3.8-0.4,6.5
			c3,11.6,7.1,23.4,12.1,34.2C606.4,154.2,605,147.7,603.2,140.9z M609.6,102.5c1.2,0.7,2.4,0.9,3.7,1.6c-7.5-5.7-14-9.8-19.1-9.5
			C599.6,97.3,604.9,99.9,609.6,102.5z M630.1,142.5c3.2,8.4,6.1,17.3,8.8,26.2c1.3,4.3,2.5,9.3,3.9,13.2c0.6,1.6,1,3.5,2.7,4
			c-2.6-16.9-8.7-33.9-16.4-49C628.2,137.8,629.2,140.4,630.1,142.5z M677.5,324.8c-0.1-1.3-0.8-2.5-1.5-3.7
			c-0.3,0.7-0.5,1.7-0.8,3.1c-0.1,0.6,0.7,2.1,1.5,4.6C677.3,326.8,677.5,325.6,677.5,324.8z M639.5,137c-1.2-0.9-2.5-1.7-0.9,1.3
			c4.4,3.9,7.8,5.4,10.1,5.1C645.8,141.2,642.3,139,639.5,137z M706.3,239.9c-11.8-6.4-24.6-12.3-37.3-17.8c-0.6-0.3-0.4,0.5-1,1.2
			c1.9,1.3,3.8,3.1,4.9,3.3c14.3,7.4,27.5,17.3,43.1,21.8C712.3,242.5,709.3,241.6,706.3,239.9z M701.8,408.9
			c7.2,5.4,14.3,9.8,21.8,10.3C716.3,415.2,709.2,410.8,701.8,408.9z M742.8,423.8c2.8,1.1,5.6,1.7,8.9,1.7c1.8,0,3.3-0.5,5.4-0.6
			C752.5,422.5,747.5,421.5,742.8,423.8z"/>
	</g>
</g>
<text transform="matrix(0.9698 0 0 1 104.3501 756)" class="st1 st2 st3">RUSSEL</text>
</svg>
